<svg width="17" height="16" viewBox="0 0 17 16" fill="none" xmlns="http://www.w3.org/2000/svg">
<path d="M6.5 5.5H4.5V10.5H6.5V5.5Z" fill="white"/>
<path fill-rule="evenodd" clip-rule="evenodd" d="M11 13C12.1046 13 13 12.1046 13 11H14.5C15.0523 11 15.5 10.5523 15.5 10V6C15.5 5.44772 15.0523 5 14.5 5H13C13 3.89543 12.1046 3 11 3H3.5C2.39543 3 1.5 3.89543 1.5 5V11C1.5 12.1046 2.39543 13 3.5 13H11ZM11 4.5H3.5C3.22386 4.5 3 4.72386 3 5V11C3 11.2761 3.22386 11.5 3.5 11.5H11C11.2761 11.5 11.5 11.2761 11.5 11V5C11.5 4.72386 11.2761 4.5 11 4.5ZM13 9.5V6.5H14V9.5H13Z" fill="white"/>
</svg>
