<svg width="180" height="180" viewBox="0 0 180 180" fill="none" xmlns="http://www.w3.org/2000/svg">
<path d="M94.4652 26.6523C95.0238 27.5669 95.9096 28.2345 96.9426 28.5197L100.568 29.5205C102.82 30.1426 103.719 32.8538 102.284 34.6984L99.7204 37.9931C99.0956 38.7962 98.782 39.7979 98.8375 40.8139L99.0461 44.6329C99.1776 47.0396 96.7562 48.7619 94.5259 47.8482L91.5993 46.6493C90.5744 46.2294 89.4256 46.2294 88.4007 46.6493L85.4741 47.8482C83.2438 48.7619 80.8224 47.0396 80.9539 44.6329L81.1625 40.8139C81.218 39.7979 80.9044 38.7962 80.2796 37.9931L77.7161 34.6984C76.2808 32.8538 77.1795 30.1426 79.4325 29.5205L83.0574 28.5197C84.0904 28.2345 84.9762 27.5669 85.5348 26.6523L87.1999 23.9267C88.4792 21.8323 91.5208 21.8323 92.8001 23.9267L94.4652 26.6523Z" fill="#C7DFFD" stroke="#3185FC" stroke-width="8.4375" stroke-linejoin="round"/>
<path d="M129.631 39.2312C130.572 39.7439 131.673 39.8792 132.711 39.6097L136.35 38.664C138.612 38.0762 140.746 39.9748 140.426 42.29L139.853 46.425C139.713 47.4329 139.943 48.4572 140.499 49.3093L142.589 52.5124C143.906 54.5309 142.67 57.2332 140.282 57.557L137.148 57.982C136.05 58.1308 135.055 58.7053 134.378 59.5813L132.443 62.0829C130.968 63.9894 128.01 63.7085 126.92 61.5585L125.192 58.1469C124.732 57.2393 123.959 56.5285 123.017 56.1454L119.149 54.5739C116.984 53.694 116.407 50.8967 118.047 49.2315L120.686 46.5523C121.438 45.7888 121.871 44.7677 121.897 43.6964L121.977 40.5034C122.037 38.05 124.671 36.5292 126.827 37.7032L129.631 39.2312Z" fill="#C7DFFD" stroke="#3185FC" stroke-width="8.4375" stroke-linejoin="round"/>
<path d="M57.5574 43.6964C57.5839 44.7677 58.0172 45.7888 58.7692 46.5523L61.408 49.2315C63.0482 50.8967 62.4709 53.694 60.3056 54.5739L56.4381 56.1454C55.4955 56.5285 54.7231 57.2393 54.2631 58.1469L52.5343 61.5585C51.4448 63.7085 48.4867 63.9894 47.012 62.0829L45.077 59.5813C44.3994 58.7053 43.4044 58.1308 42.3069 57.982L39.173 57.557C36.7846 57.2332 35.5487 54.5309 36.8659 52.5124L38.9561 49.3093C39.5121 48.4572 39.7415 47.4329 39.6019 46.425L39.0292 42.29C38.7085 39.9748 40.8424 38.0762 43.1046 38.664L46.7443 39.6097C47.7815 39.8792 48.8824 39.7439 49.8235 39.2312L52.6283 37.7032C54.7834 36.5292 57.4174 38.05 57.4782 40.5034L57.5574 43.6964Z" fill="#C7DFFD" stroke="#3185FC" stroke-width="8.4375" stroke-linejoin="round"/>
<mask id="path-4-inside-1_52_13061" fill="white">
<path fill-rule="evenodd" clip-rule="evenodd" d="M75 56.25C70.8579 56.25 67.5 59.6079 67.5 63.75V135C67.5 150.533 80.092 163.125 95.625 163.125H132.188C139.954 163.125 146.25 156.829 146.25 149.062C146.25 146.675 145.655 144.427 144.606 142.458C147.348 139.892 149.062 136.24 149.062 132.188C149.062 129.022 148.016 126.1 146.251 123.75C148.016 121.4 149.062 118.478 149.062 115.312C149.062 112.147 148.016 109.225 146.251 106.875C148.016 104.525 149.062 101.603 149.062 98.4375C149.062 90.671 142.767 84.375 135 84.375H95.625V71.25C95.625 62.9657 88.9093 56.25 80.625 56.25H75Z"/>
</mask>
<path d="M144.606 142.458L138.841 136.297C136.054 138.905 135.365 143.058 137.16 146.426L144.606 142.458ZM146.251 123.75L139.505 118.683C137.25 121.685 137.25 125.815 139.505 128.817L146.251 123.75ZM146.251 106.875L139.505 101.808C137.25 104.81 137.25 108.94 139.505 111.942L146.251 106.875ZM95.625 84.375H87.1875C87.1875 89.0349 90.9651 92.8125 95.625 92.8125V84.375ZM75.9375 63.75C75.9375 64.2678 75.5178 64.6875 75 64.6875V47.8125C66.198 47.8125 59.0625 54.948 59.0625 63.75H75.9375ZM75.9375 135V63.75H59.0625V135H75.9375ZM95.625 154.688C84.7519 154.688 75.9375 145.873 75.9375 135H59.0625C59.0625 155.193 75.4321 171.562 95.625 171.562V154.688ZM95.625 171.562H132.188V154.688H95.625V171.562ZM132.188 171.562C144.614 171.562 154.688 161.489 154.688 149.062H137.812C137.812 152.169 135.294 154.688 132.188 154.688V171.562ZM154.688 149.062C154.688 145.258 153.736 141.65 152.052 138.49L137.16 146.426C137.574 147.204 137.812 148.093 137.812 149.062H154.688ZM150.37 148.619C154.747 144.524 157.5 138.671 157.5 132.188H140.625C140.625 133.809 139.95 135.259 138.841 136.297L150.37 148.619ZM157.5 132.188C157.5 127.132 155.823 122.444 152.997 118.683L139.505 128.817C140.21 129.757 140.625 130.911 140.625 132.188H157.5ZM152.997 128.817C155.823 125.056 157.5 120.368 157.5 115.312H140.625C140.625 116.589 140.21 117.743 139.505 118.683L152.997 128.817ZM157.5 115.312C157.5 110.257 155.823 105.569 152.997 101.808L139.505 111.942C140.21 112.882 140.625 114.036 140.625 115.312H157.5ZM152.997 111.942C155.823 108.181 157.5 103.493 157.5 98.4375H140.625C140.625 99.7135 140.21 100.868 139.505 101.808L152.997 111.942ZM157.5 98.4375C157.5 86.0111 147.426 75.9375 135 75.9375V92.8125C138.107 92.8125 140.625 95.3309 140.625 98.4375H157.5ZM135 75.9375H95.625V92.8125H135V75.9375ZM87.1875 71.25V84.375H104.062V71.25H87.1875ZM80.625 64.6875C84.2494 64.6875 87.1875 67.6256 87.1875 71.25H104.062C104.062 58.3058 93.5692 47.8125 80.625 47.8125V64.6875ZM75 64.6875H80.625V47.8125H75V64.6875Z" fill="#3185FC" mask="url(#path-4-inside-1_52_13061)"/>
<path fill-rule="evenodd" clip-rule="evenodd" d="M129.375 107.156C129.375 104.826 131.264 102.937 133.594 102.937H140.625V111.375H133.594C131.264 111.375 129.375 109.486 129.375 107.156ZM129.375 124.032C129.375 121.702 131.264 119.813 133.594 119.813H140.625V128.25H133.594C131.264 128.25 129.375 126.361 129.375 124.032ZM133.594 137.812C131.264 137.812 129.375 139.701 129.375 142.031C129.375 144.361 131.264 146.25 133.594 146.25H140.625V137.812H133.594Z" fill="#3185FC"/>
<mask id="path-7-inside-2_52_13061" fill="white">
<path d="M33.75 97.5C33.75 93.3579 37.1079 90 41.25 90H54.375C58.5171 90 61.875 93.3579 61.875 97.5V150C61.875 154.142 58.5171 157.5 54.375 157.5H41.25C37.1079 157.5 33.75 154.142 33.75 150V97.5Z"/>
</mask>
<path d="M33.75 97.5C33.75 93.3579 37.1079 90 41.25 90H54.375C58.5171 90 61.875 93.3579 61.875 97.5V150C61.875 154.142 58.5171 157.5 54.375 157.5H41.25C37.1079 157.5 33.75 154.142 33.75 150V97.5Z" stroke="#3185FC" stroke-width="16.875" mask="url(#path-7-inside-2_52_13061)"/>
</svg>
