<svg width="180" height="180" viewBox="0 0 180 180" fill="none" xmlns="http://www.w3.org/2000/svg">
<g clip-path="url(#clip0_52_12479)">
<path fill-rule="evenodd" clip-rule="evenodd" d="M33.6046 114.386L25.1938 134.778C23.5404 138.786 23.5862 143.192 25.1448 147.06L51.2028 154.042L102.555 132.861L33.6046 114.386ZM85.3971 73.9119L122.052 110.567L120.026 118.131L40.8143 96.9065L53.7917 65.4432L85.3971 73.9119Z" fill="#B9EDD9"/>
<path fill-rule="evenodd" clip-rule="evenodd" d="M103.6 132.43L90.7621 137.725L30.6235 121.611L33.8679 113.745L103.6 132.43ZM121.547 110.063L132.141 120.658L130.702 121.252L40.7169 97.1403L43.9612 89.2745L121.547 110.063ZM84.4235 72.9401L96.3559 84.8725L50.8105 72.6686L54.0549 64.8028L84.4235 72.9401ZM24.1811 138.326L63.6592 148.904L50.8211 154.2L25.2641 147.352C24.0602 144.523 23.6743 141.39 24.1811 138.326Z" fill="#19A074"/>
<path d="M29.0937 136.387L62.0366 56.5181L124.688 119.169L44.819 152.112C40.3221 153.967 35.1509 152.934 31.7112 149.494C28.2716 146.055 27.2389 140.884 29.0937 136.387Z" stroke="#19A074" stroke-width="8.4375"/>
<path d="M136.177 119.087C134.864 118.987 134.062 117.598 134.63 116.409L135.433 114.728C135.619 114.338 135.665 113.897 135.563 113.477L135.126 111.668C134.817 110.387 135.889 109.193 137.194 109.365L139.038 109.609C139.465 109.665 139.899 109.572 140.266 109.346L141.85 108.369C142.971 107.678 144.436 108.329 144.674 109.625L145.012 111.456C145.09 111.88 145.312 112.265 145.64 112.544L147.056 113.75C148.059 114.604 147.892 116.2 146.734 116.829L145.099 117.717C144.72 117.923 144.423 118.253 144.259 118.652L143.55 120.375C143.048 121.594 141.481 121.929 140.527 121.021L139.179 119.739C138.866 119.442 138.461 119.262 138.031 119.229L136.177 119.087Z" fill="#19A074"/>
<path d="M66.1117 47.8917C64.9247 48.4612 63.5359 47.6593 63.4329 46.345L63.2873 44.4884C63.2536 44.0582 63.0728 43.6526 62.7754 43.3401L61.4919 41.9914C60.5833 41.0367 60.9148 39.4669 62.1313 38.9636L63.8497 38.2526C64.248 38.0878 64.5772 37.7906 64.7819 37.411L65.6655 35.7729C66.2909 34.6134 67.8847 34.4451 68.7395 35.4483L69.9471 36.8655C70.2269 37.1939 70.6112 37.4158 71.0352 37.4937L72.8647 37.83C74.1599 38.068 74.8134 39.5338 74.1252 40.6572L73.153 42.244C72.9278 42.6118 72.836 43.0461 72.8933 43.4739L73.1405 45.3198C73.3155 46.6265 72.1256 47.7007 70.8455 47.3917L69.0371 46.9553C68.618 46.8541 68.177 46.9007 67.7885 47.0871L66.1117 47.8917Z" fill="#19A074"/>
<path d="M92.3401 25.195V25.195C101.127 33.9818 101.148 48.2487 92.3865 57.0611L88.4207 61.0502" stroke="#19A074" stroke-width="8.4375" stroke-linecap="round"/>
<path d="M156.006 88.8375V88.8375C147.219 80.0507 132.994 80.0715 124.233 88.8838L120.267 92.8729" stroke="#19A074" stroke-width="8.4375" stroke-linecap="round"/>
<path d="M132.024 25.0814L133.35 26.4072C139.208 32.265 139.222 41.7763 133.381 47.6513L104.298 76.9043" stroke="#19A074" stroke-width="8.4375" stroke-linecap="round"/>
<line x1="4.21875" y1="-4.21875" x2="12.6563" y2="-4.21875" transform="matrix(-0.706075 0.708137 -0.706075 -0.708136 120.193 29.1598)" stroke="#19A074" stroke-width="8.4375" stroke-linecap="round"/>
</g>
<defs>
<clipPath id="clip0_52_12479">
<rect width="180" height="180" fill="white"/>
</clipPath>
</defs>
</svg>
